# xmcd
#
# Track frame offsets: 
#        150
#        19878
#        20304
#        31911
#        32440
#        32784
#        61256
#        77464
#        95863
#        117264
#        124110
#        132195
#        138041
#        140624
#        144824
#        146833
#        151177
#        255814
#        280138
#        283044
#        345507
#        351598
#
# Disc length: 4767 seconds
#
# Revision: 0
# Processed by: cddbd v1.5.2PL0 Copyright (c) Steve Scherf et al.
# Submitted via: ExactAudioCopy v0.95b4
#
DISCID=34129d16
DTITLE=The Beatles  - AB  Road - Complete Purple Chick Set v1.1 Jan.25
DTITLE=Various Artist - D1  FLAC
DYEAR=1900
DGENRE=
TTITLE0=Dialogue
TTITLE1=Get Back 23.78P
TTITLE2=Get Back 23.79P
TTITLE3=I've Got A Feeling (fragment) 23.80P
TTITLE4=Help! (fragment-tape rewind) 23.81P
TTITLE5=Teddy Boy 24.33P
TTITLE6=Two Of Us 24.69P
TTITLE7=Dig A Pony 22.67P
TTITLE8=I've Got A Feeling 22.69P
TTITLE9=Improvisation 25.01
TTITLE10=Improvisation 25.02
TTITLE11=Improvisation 25.03
TTITLE12=Unknown 25.04-25.05
TTITLE13=Improvisation 25.06
TTITLE14=Improvisation 25.07
TTITLE15=Another Day 25.08
TTITLE16=Two Of Us 25.09
TTITLE17=Instrumental 25.10
TTITLE18=Act Naturally 25.11
TTITLE19=Two Of Us 25.12
TTITLE20=I've Got A Feeling 25.13
TTITLE21=Nashville Cat 25.14
EXTD=
EXTT0=
EXTT1=
EXTT2=
EXTT3=
EXTT4=
EXTT5=
EXTT6=
EXTT7=
EXTT8=
EXTT9=
EXTT10=
EXTT11=
EXTT12=
EXTT13=
EXTT14=
EXTT15=
EXTT16=
EXTT17=
EXTT18=
EXTT19=
EXTT20=
EXTT21=
PLAYORDER=
